<mxfile host="app.diagrams.net" modified="2022-04-13T11:25:35.282Z" agent="5.0 (Windows NT 10.0; WOW64) AppleWebKit/537.36 (KHTML, like Gecko) Chrome/78.0.3904.108 Safari/537.36" etag="K1G40r97MtG0vYA-X4Jz" version="17.4.3" type="github">
  <diagram id="IFyFh3KHdMzkWIl6z-i0" name="Page-1">
    <mxGraphModel dx="1822" dy="762" grid="0" gridSize="10" guides="1" tooltips="1" connect="1" arrows="1" fold="1" page="0" pageScale="1" pageWidth="827" pageHeight="1169" background="#FFFFFF" math="0" shadow="1">
      <root>
        <mxCell id="0" />
        <mxCell id="1" parent="0" />
        <mxCell id="uByIAMvZp5yXe5QKdyG4-4" style="edgeStyle=orthogonalEdgeStyle;rounded=0;orthogonalLoop=1;jettySize=auto;html=1;labelBackgroundColor=#F1FAEE;strokeColor=#457B9D;fontColor=#1D3557;" edge="1" parent="1" source="uByIAMvZp5yXe5QKdyG4-1" target="uByIAMvZp5yXe5QKdyG4-2">
          <mxGeometry relative="1" as="geometry" />
        </mxCell>
        <mxCell id="uByIAMvZp5yXe5QKdyG4-5" value="一对一" style="edgeLabel;html=1;align=center;verticalAlign=middle;resizable=0;points=[];labelBackgroundColor=#F1FAEE;fontColor=#1D3557;" vertex="1" connectable="0" parent="uByIAMvZp5yXe5QKdyG4-4">
          <mxGeometry x="-0.25" relative="1" as="geometry">
            <mxPoint as="offset" />
          </mxGeometry>
        </mxCell>
        <mxCell id="uByIAMvZp5yXe5QKdyG4-9" style="rounded=0;orthogonalLoop=1;jettySize=auto;html=1;labelBackgroundColor=#F1FAEE;strokeColor=#457B9D;fontColor=#1D3557;" edge="1" parent="1" source="uByIAMvZp5yXe5QKdyG4-1" target="uByIAMvZp5yXe5QKdyG4-7">
          <mxGeometry relative="1" as="geometry" />
        </mxCell>
        <mxCell id="uByIAMvZp5yXe5QKdyG4-11" value="1" style="edgeLabel;html=1;align=center;verticalAlign=middle;resizable=0;points=[];labelBackgroundColor=#F1FAEE;fontColor=#1D3557;" vertex="1" connectable="0" parent="uByIAMvZp5yXe5QKdyG4-9">
          <mxGeometry x="-0.3853" relative="1" as="geometry">
            <mxPoint as="offset" />
          </mxGeometry>
        </mxCell>
        <mxCell id="uByIAMvZp5yXe5QKdyG4-1" value="用户" style="ellipse;whiteSpace=wrap;html=1;fillColor=#A8DADC;strokeColor=#457B9D;fontColor=#1D3557;" vertex="1" parent="1">
          <mxGeometry x="150" y="200" width="120" height="80" as="geometry" />
        </mxCell>
        <mxCell id="uByIAMvZp5yXe5QKdyG4-6" value="一对多" style="edgeStyle=orthogonalEdgeStyle;rounded=0;orthogonalLoop=1;jettySize=auto;html=1;labelBackgroundColor=#F1FAEE;strokeColor=#457B9D;fontColor=#1D3557;" edge="1" parent="1" source="uByIAMvZp5yXe5QKdyG4-2" target="uByIAMvZp5yXe5QKdyG4-3">
          <mxGeometry relative="1" as="geometry" />
        </mxCell>
        <mxCell id="uByIAMvZp5yXe5QKdyG4-10" style="edgeStyle=none;rounded=0;orthogonalLoop=1;jettySize=auto;html=1;labelBackgroundColor=#F1FAEE;strokeColor=#457B9D;fontColor=#1D3557;" edge="1" parent="1" source="uByIAMvZp5yXe5QKdyG4-2" target="uByIAMvZp5yXe5QKdyG4-7">
          <mxGeometry relative="1" as="geometry" />
        </mxCell>
        <mxCell id="uByIAMvZp5yXe5QKdyG4-12" value="1" style="edgeLabel;html=1;align=center;verticalAlign=middle;resizable=0;points=[];labelBackgroundColor=#F1FAEE;fontColor=#1D3557;" vertex="1" connectable="0" parent="uByIAMvZp5yXe5QKdyG4-10">
          <mxGeometry x="-0.189" y="3" relative="1" as="geometry">
            <mxPoint as="offset" />
          </mxGeometry>
        </mxCell>
        <mxCell id="uByIAMvZp5yXe5QKdyG4-13" style="edgeStyle=none;rounded=0;orthogonalLoop=1;jettySize=auto;html=1;labelBackgroundColor=#F1FAEE;strokeColor=#457B9D;fontColor=#1D3557;" edge="1" parent="1" source="uByIAMvZp5yXe5QKdyG4-2" target="uByIAMvZp5yXe5QKdyG4-8">
          <mxGeometry relative="1" as="geometry" />
        </mxCell>
        <mxCell id="uByIAMvZp5yXe5QKdyG4-15" value="1" style="edgeLabel;html=1;align=center;verticalAlign=middle;resizable=0;points=[];labelBackgroundColor=#F1FAEE;fontColor=#1D3557;" vertex="1" connectable="0" parent="uByIAMvZp5yXe5QKdyG4-13">
          <mxGeometry x="-0.1719" y="-2" relative="1" as="geometry">
            <mxPoint as="offset" />
          </mxGeometry>
        </mxCell>
        <mxCell id="uByIAMvZp5yXe5QKdyG4-2" value="角色" style="ellipse;whiteSpace=wrap;html=1;fillColor=#A8DADC;strokeColor=#457B9D;fontColor=#1D3557;" vertex="1" parent="1">
          <mxGeometry x="150" y="360" width="120" height="80" as="geometry" />
        </mxCell>
        <mxCell id="uByIAMvZp5yXe5QKdyG4-14" value="多" style="edgeStyle=none;rounded=0;orthogonalLoop=1;jettySize=auto;html=1;labelBackgroundColor=#F1FAEE;strokeColor=#457B9D;fontColor=#1D3557;" edge="1" parent="1" source="uByIAMvZp5yXe5QKdyG4-3" target="uByIAMvZp5yXe5QKdyG4-8">
          <mxGeometry relative="1" as="geometry" />
        </mxCell>
        <mxCell id="uByIAMvZp5yXe5QKdyG4-3" value="权限" style="ellipse;whiteSpace=wrap;html=1;fillColor=#A8DADC;strokeColor=#457B9D;fontColor=#1D3557;" vertex="1" parent="1">
          <mxGeometry x="150" y="520" width="120" height="80" as="geometry" />
        </mxCell>
        <mxCell id="uByIAMvZp5yXe5QKdyG4-7" value="用户角色关系" style="ellipse;whiteSpace=wrap;html=1;fillColor=#A8DADC;strokeColor=#457B9D;fontColor=#1D3557;" vertex="1" parent="1">
          <mxGeometry x="390" y="290" width="120" height="80" as="geometry" />
        </mxCell>
        <mxCell id="uByIAMvZp5yXe5QKdyG4-8" value="角色权限关系" style="ellipse;whiteSpace=wrap;html=1;fillColor=#A8DADC;strokeColor=#457B9D;fontColor=#1D3557;" vertex="1" parent="1">
          <mxGeometry x="390" y="440" width="120" height="80" as="geometry" />
        </mxCell>
        <mxCell id="uByIAMvZp5yXe5QKdyG4-16" value="角色权限示意图" style="text;html=1;strokeColor=none;fillColor=none;align=center;verticalAlign=middle;whiteSpace=wrap;rounded=0;sketch=0;fontColor=#1D3557;fontSize=16;" vertex="1" parent="1">
          <mxGeometry x="308" y="619" width="123" height="30" as="geometry" />
        </mxCell>
        <mxCell id="uByIAMvZp5yXe5QKdyG4-24" style="edgeStyle=orthogonalEdgeStyle;curved=0;rounded=1;sketch=0;orthogonalLoop=1;jettySize=auto;html=1;fontSize=16;fontColor=#1D3557;strokeColor=#457B9D;fillColor=#A8DADC;" edge="1" parent="1" source="uByIAMvZp5yXe5QKdyG4-18" target="uByIAMvZp5yXe5QKdyG4-19">
          <mxGeometry relative="1" as="geometry" />
        </mxCell>
        <mxCell id="uByIAMvZp5yXe5QKdyG4-18" value="用户" style="ellipse;whiteSpace=wrap;html=1;rounded=0;sketch=0;fontSize=16;fontColor=#1D3557;strokeColor=#457B9D;fillColor=#A8DADC;" vertex="1" parent="1">
          <mxGeometry x="338" y="1255" width="120" height="80" as="geometry" />
        </mxCell>
        <mxCell id="uByIAMvZp5yXe5QKdyG4-25" style="edgeStyle=orthogonalEdgeStyle;curved=0;rounded=1;sketch=0;orthogonalLoop=1;jettySize=auto;html=1;fontSize=16;fontColor=#1D3557;strokeColor=#457B9D;fillColor=#A8DADC;" edge="1" parent="1" source="uByIAMvZp5yXe5QKdyG4-19" target="uByIAMvZp5yXe5QKdyG4-20">
          <mxGeometry relative="1" as="geometry" />
        </mxCell>
        <mxCell id="uByIAMvZp5yXe5QKdyG4-26" style="edgeStyle=orthogonalEdgeStyle;curved=0;rounded=1;sketch=0;orthogonalLoop=1;jettySize=auto;html=1;fontSize=16;fontColor=#1D3557;strokeColor=#457B9D;fillColor=#A8DADC;" edge="1" parent="1" source="uByIAMvZp5yXe5QKdyG4-19" target="uByIAMvZp5yXe5QKdyG4-21">
          <mxGeometry relative="1" as="geometry" />
        </mxCell>
        <mxCell id="uByIAMvZp5yXe5QKdyG4-27" style="edgeStyle=orthogonalEdgeStyle;curved=0;rounded=1;sketch=0;orthogonalLoop=1;jettySize=auto;html=1;fontSize=16;fontColor=#1D3557;strokeColor=#457B9D;fillColor=#A8DADC;" edge="1" parent="1" source="uByIAMvZp5yXe5QKdyG4-19" target="uByIAMvZp5yXe5QKdyG4-22">
          <mxGeometry relative="1" as="geometry" />
        </mxCell>
        <mxCell id="uByIAMvZp5yXe5QKdyG4-28" style="edgeStyle=orthogonalEdgeStyle;curved=0;rounded=1;sketch=0;orthogonalLoop=1;jettySize=auto;html=1;entryX=0.5;entryY=0;entryDx=0;entryDy=0;fontSize=16;fontColor=#1D3557;strokeColor=#457B9D;fillColor=#A8DADC;" edge="1" parent="1" source="uByIAMvZp5yXe5QKdyG4-19" target="uByIAMvZp5yXe5QKdyG4-23">
          <mxGeometry relative="1" as="geometry" />
        </mxCell>
        <mxCell id="uByIAMvZp5yXe5QKdyG4-19" value="角色" style="ellipse;whiteSpace=wrap;html=1;rounded=0;sketch=0;fontSize=16;fontColor=#1D3557;strokeColor=#457B9D;fillColor=#A8DADC;" vertex="1" parent="1">
          <mxGeometry x="338" y="1402" width="120" height="80" as="geometry" />
        </mxCell>
        <mxCell id="uByIAMvZp5yXe5QKdyG4-20" value="驾驶员系统" style="ellipse;whiteSpace=wrap;html=1;rounded=0;sketch=0;fontSize=16;fontColor=#1D3557;strokeColor=#457B9D;fillColor=#A8DADC;" vertex="1" parent="1">
          <mxGeometry x="94" y="1549" width="120" height="80" as="geometry" />
        </mxCell>
        <mxCell id="uByIAMvZp5yXe5QKdyG4-21" value="调度系统" style="ellipse;whiteSpace=wrap;html=1;rounded=0;sketch=0;fontSize=16;fontColor=#1D3557;strokeColor=#457B9D;fillColor=#A8DADC;" vertex="1" parent="1">
          <mxGeometry x="256" y="1549" width="120" height="80" as="geometry" />
        </mxCell>
        <mxCell id="uByIAMvZp5yXe5QKdyG4-22" value="营运系统" style="ellipse;whiteSpace=wrap;html=1;rounded=0;sketch=0;fontSize=16;fontColor=#1D3557;strokeColor=#457B9D;fillColor=#A8DADC;" vertex="1" parent="1">
          <mxGeometry x="422" y="1549" width="120" height="80" as="geometry" />
        </mxCell>
        <mxCell id="uByIAMvZp5yXe5QKdyG4-23" value="..." style="ellipse;whiteSpace=wrap;html=1;rounded=0;sketch=0;fontSize=16;fontColor=#1D3557;strokeColor=#457B9D;fillColor=#A8DADC;" vertex="1" parent="1">
          <mxGeometry x="587" y="1552" width="120" height="80" as="geometry" />
        </mxCell>
        <mxCell id="uByIAMvZp5yXe5QKdyG4-29" value="平台权限示意图" style="text;html=1;strokeColor=none;fillColor=none;align=center;verticalAlign=middle;whiteSpace=wrap;rounded=0;sketch=0;fontSize=16;fontColor=#1D3557;" vertex="1" parent="1">
          <mxGeometry x="327" y="1664" width="161" height="30" as="geometry" />
        </mxCell>
        <mxCell id="uByIAMvZp5yXe5QKdyG4-31" style="edgeStyle=orthogonalEdgeStyle;curved=0;rounded=1;sketch=0;orthogonalLoop=1;jettySize=auto;html=1;fontSize=16;fontColor=#1D3557;strokeColor=#457B9D;fillColor=#A8DADC;" edge="1" source="uByIAMvZp5yXe5QKdyG4-32" target="uByIAMvZp5yXe5QKdyG4-37" parent="1">
          <mxGeometry relative="1" as="geometry" />
        </mxCell>
        <mxCell id="uByIAMvZp5yXe5QKdyG4-32" value="用户" style="ellipse;whiteSpace=wrap;html=1;rounded=0;sketch=0;fontSize=16;fontColor=#1D3557;strokeColor=#457B9D;fillColor=#A8DADC;" vertex="1" parent="1">
          <mxGeometry x="335.5" y="1835" width="120" height="80" as="geometry" />
        </mxCell>
        <mxCell id="uByIAMvZp5yXe5QKdyG4-33" style="edgeStyle=orthogonalEdgeStyle;curved=0;rounded=1;sketch=0;orthogonalLoop=1;jettySize=auto;html=1;fontSize=16;fontColor=#1D3557;strokeColor=#457B9D;fillColor=#A8DADC;" edge="1" source="uByIAMvZp5yXe5QKdyG4-37" target="uByIAMvZp5yXe5QKdyG4-38" parent="1">
          <mxGeometry relative="1" as="geometry" />
        </mxCell>
        <mxCell id="uByIAMvZp5yXe5QKdyG4-34" style="edgeStyle=orthogonalEdgeStyle;curved=0;rounded=1;sketch=0;orthogonalLoop=1;jettySize=auto;html=1;fontSize=16;fontColor=#1D3557;strokeColor=#457B9D;fillColor=#A8DADC;" edge="1" source="uByIAMvZp5yXe5QKdyG4-37" target="uByIAMvZp5yXe5QKdyG4-39" parent="1">
          <mxGeometry relative="1" as="geometry" />
        </mxCell>
        <mxCell id="uByIAMvZp5yXe5QKdyG4-35" style="edgeStyle=orthogonalEdgeStyle;curved=0;rounded=1;sketch=0;orthogonalLoop=1;jettySize=auto;html=1;fontSize=16;fontColor=#1D3557;strokeColor=#457B9D;fillColor=#A8DADC;" edge="1" source="uByIAMvZp5yXe5QKdyG4-37" target="uByIAMvZp5yXe5QKdyG4-40" parent="1">
          <mxGeometry relative="1" as="geometry" />
        </mxCell>
        <mxCell id="uByIAMvZp5yXe5QKdyG4-36" style="edgeStyle=orthogonalEdgeStyle;curved=0;rounded=1;sketch=0;orthogonalLoop=1;jettySize=auto;html=1;entryX=0.5;entryY=0;entryDx=0;entryDy=0;fontSize=16;fontColor=#1D3557;strokeColor=#457B9D;fillColor=#A8DADC;" edge="1" source="uByIAMvZp5yXe5QKdyG4-37" target="uByIAMvZp5yXe5QKdyG4-41" parent="1">
          <mxGeometry relative="1" as="geometry" />
        </mxCell>
        <mxCell id="uByIAMvZp5yXe5QKdyG4-37" value="角色" style="ellipse;whiteSpace=wrap;html=1;rounded=0;sketch=0;fontSize=16;fontColor=#1D3557;strokeColor=#457B9D;fillColor=#A8DADC;" vertex="1" parent="1">
          <mxGeometry x="335.5" y="1982" width="120" height="80" as="geometry" />
        </mxCell>
        <mxCell id="uByIAMvZp5yXe5QKdyG4-52" style="edgeStyle=orthogonalEdgeStyle;rounded=1;sketch=0;orthogonalLoop=1;jettySize=auto;html=1;entryX=0.5;entryY=0;entryDx=0;entryDy=0;fontSize=16;fontColor=#1D3557;strokeColor=#457B9D;fillColor=#A8DADC;" edge="1" parent="1" source="uByIAMvZp5yXe5QKdyG4-38" target="uByIAMvZp5yXe5QKdyG4-44">
          <mxGeometry relative="1" as="geometry" />
        </mxCell>
        <mxCell id="uByIAMvZp5yXe5QKdyG4-53" style="edgeStyle=orthogonalEdgeStyle;rounded=1;sketch=0;orthogonalLoop=1;jettySize=auto;html=1;fontSize=16;fontColor=#1D3557;strokeColor=#457B9D;fillColor=#A8DADC;" edge="1" parent="1" source="uByIAMvZp5yXe5QKdyG4-38" target="uByIAMvZp5yXe5QKdyG4-47">
          <mxGeometry relative="1" as="geometry" />
        </mxCell>
        <mxCell id="uByIAMvZp5yXe5QKdyG4-54" style="edgeStyle=orthogonalEdgeStyle;rounded=1;sketch=0;orthogonalLoop=1;jettySize=auto;html=1;fontSize=16;fontColor=#1D3557;strokeColor=#457B9D;fillColor=#A8DADC;" edge="1" parent="1" source="uByIAMvZp5yXe5QKdyG4-38" target="uByIAMvZp5yXe5QKdyG4-48">
          <mxGeometry relative="1" as="geometry" />
        </mxCell>
        <mxCell id="uByIAMvZp5yXe5QKdyG4-55" style="edgeStyle=orthogonalEdgeStyle;rounded=1;sketch=0;orthogonalLoop=1;jettySize=auto;html=1;fontSize=16;fontColor=#1D3557;strokeColor=#457B9D;fillColor=#A8DADC;" edge="1" parent="1" source="uByIAMvZp5yXe5QKdyG4-38" target="uByIAMvZp5yXe5QKdyG4-49">
          <mxGeometry relative="1" as="geometry" />
        </mxCell>
        <mxCell id="uByIAMvZp5yXe5QKdyG4-38" value="车辆管理" style="ellipse;whiteSpace=wrap;html=1;rounded=0;sketch=0;fontSize=16;fontColor=#1D3557;strokeColor=#457B9D;fillColor=#A8DADC;" vertex="1" parent="1">
          <mxGeometry x="-182" y="2124" width="120" height="80" as="geometry" />
        </mxCell>
        <mxCell id="uByIAMvZp5yXe5QKdyG4-60" style="edgeStyle=orthogonalEdgeStyle;rounded=1;sketch=0;orthogonalLoop=1;jettySize=auto;html=1;fontSize=16;fontColor=#1D3557;strokeColor=#457B9D;fillColor=#A8DADC;" edge="1" parent="1" source="uByIAMvZp5yXe5QKdyG4-39" target="uByIAMvZp5yXe5QKdyG4-56">
          <mxGeometry relative="1" as="geometry" />
        </mxCell>
        <mxCell id="uByIAMvZp5yXe5QKdyG4-61" style="edgeStyle=orthogonalEdgeStyle;rounded=1;sketch=0;orthogonalLoop=1;jettySize=auto;html=1;fontSize=16;fontColor=#1D3557;strokeColor=#457B9D;fillColor=#A8DADC;" edge="1" parent="1" source="uByIAMvZp5yXe5QKdyG4-39" target="uByIAMvZp5yXe5QKdyG4-57">
          <mxGeometry relative="1" as="geometry" />
        </mxCell>
        <mxCell id="uByIAMvZp5yXe5QKdyG4-62" style="edgeStyle=orthogonalEdgeStyle;rounded=1;sketch=0;orthogonalLoop=1;jettySize=auto;html=1;fontSize=16;fontColor=#1D3557;strokeColor=#457B9D;fillColor=#A8DADC;" edge="1" parent="1" source="uByIAMvZp5yXe5QKdyG4-39" target="uByIAMvZp5yXe5QKdyG4-58">
          <mxGeometry relative="1" as="geometry" />
        </mxCell>
        <mxCell id="uByIAMvZp5yXe5QKdyG4-63" style="edgeStyle=orthogonalEdgeStyle;rounded=1;sketch=0;orthogonalLoop=1;jettySize=auto;html=1;fontSize=16;fontColor=#1D3557;strokeColor=#457B9D;fillColor=#A8DADC;" edge="1" parent="1" source="uByIAMvZp5yXe5QKdyG4-39" target="uByIAMvZp5yXe5QKdyG4-59">
          <mxGeometry relative="1" as="geometry" />
        </mxCell>
        <mxCell id="uByIAMvZp5yXe5QKdyG4-39" value="报表管理" style="ellipse;whiteSpace=wrap;html=1;rounded=0;sketch=0;fontSize=16;fontColor=#1D3557;strokeColor=#457B9D;fillColor=#A8DADC;" vertex="1" parent="1">
          <mxGeometry x="183" y="2129" width="120" height="80" as="geometry" />
        </mxCell>
        <mxCell id="uByIAMvZp5yXe5QKdyG4-68" style="edgeStyle=orthogonalEdgeStyle;rounded=1;sketch=0;orthogonalLoop=1;jettySize=auto;html=1;fontSize=16;fontColor=#1D3557;strokeColor=#457B9D;fillColor=#A8DADC;" edge="1" parent="1" source="uByIAMvZp5yXe5QKdyG4-40" target="uByIAMvZp5yXe5QKdyG4-64">
          <mxGeometry relative="1" as="geometry" />
        </mxCell>
        <mxCell id="uByIAMvZp5yXe5QKdyG4-69" style="edgeStyle=orthogonalEdgeStyle;rounded=1;sketch=0;orthogonalLoop=1;jettySize=auto;html=1;fontSize=16;fontColor=#1D3557;strokeColor=#457B9D;fillColor=#A8DADC;" edge="1" parent="1" source="uByIAMvZp5yXe5QKdyG4-40" target="uByIAMvZp5yXe5QKdyG4-65">
          <mxGeometry relative="1" as="geometry" />
        </mxCell>
        <mxCell id="uByIAMvZp5yXe5QKdyG4-70" style="edgeStyle=orthogonalEdgeStyle;rounded=1;sketch=0;orthogonalLoop=1;jettySize=auto;html=1;fontSize=16;fontColor=#1D3557;strokeColor=#457B9D;fillColor=#A8DADC;" edge="1" parent="1" source="uByIAMvZp5yXe5QKdyG4-40" target="uByIAMvZp5yXe5QKdyG4-66">
          <mxGeometry relative="1" as="geometry" />
        </mxCell>
        <mxCell id="uByIAMvZp5yXe5QKdyG4-71" style="edgeStyle=orthogonalEdgeStyle;rounded=1;sketch=0;orthogonalLoop=1;jettySize=auto;html=1;fontSize=16;fontColor=#1D3557;strokeColor=#457B9D;fillColor=#A8DADC;" edge="1" parent="1" source="uByIAMvZp5yXe5QKdyG4-40" target="uByIAMvZp5yXe5QKdyG4-67">
          <mxGeometry relative="1" as="geometry" />
        </mxCell>
        <mxCell id="uByIAMvZp5yXe5QKdyG4-40" value="系统配置" style="ellipse;whiteSpace=wrap;html=1;rounded=0;sketch=0;fontSize=16;fontColor=#1D3557;strokeColor=#457B9D;fillColor=#A8DADC;" vertex="1" parent="1">
          <mxGeometry x="521" y="2129" width="120" height="80" as="geometry" />
        </mxCell>
        <mxCell id="uByIAMvZp5yXe5QKdyG4-41" value="..." style="ellipse;whiteSpace=wrap;html=1;rounded=0;sketch=0;fontSize=16;fontColor=#1D3557;strokeColor=#457B9D;fillColor=#A8DADC;" vertex="1" parent="1">
          <mxGeometry x="848" y="2131" width="120" height="80" as="geometry" />
        </mxCell>
        <mxCell id="uByIAMvZp5yXe5QKdyG4-44" value="列表" style="ellipse;whiteSpace=wrap;html=1;rounded=0;sketch=0;fontSize=16;fontColor=#1D3557;strokeColor=#457B9D;fillColor=#A8DADC;" vertex="1" parent="1">
          <mxGeometry x="-274.5" y="2305" width="57" height="51" as="geometry" />
        </mxCell>
        <mxCell id="uByIAMvZp5yXe5QKdyG4-47" value="导出" style="ellipse;whiteSpace=wrap;html=1;rounded=0;sketch=0;fontSize=16;fontColor=#1D3557;strokeColor=#457B9D;fillColor=#A8DADC;" vertex="1" parent="1">
          <mxGeometry x="-194.5" y="2303" width="57" height="51" as="geometry" />
        </mxCell>
        <mxCell id="uByIAMvZp5yXe5QKdyG4-48" value="删除" style="ellipse;whiteSpace=wrap;html=1;rounded=0;sketch=0;fontSize=16;fontColor=#1D3557;strokeColor=#457B9D;fillColor=#A8DADC;" vertex="1" parent="1">
          <mxGeometry x="-101.5" y="2303" width="57" height="51" as="geometry" />
        </mxCell>
        <mxCell id="uByIAMvZp5yXe5QKdyG4-49" value="..." style="ellipse;whiteSpace=wrap;html=1;rounded=0;sketch=0;fontSize=16;fontColor=#1D3557;strokeColor=#457B9D;fillColor=#A8DADC;" vertex="1" parent="1">
          <mxGeometry x="-26.5" y="2305" width="57" height="51" as="geometry" />
        </mxCell>
        <mxCell id="uByIAMvZp5yXe5QKdyG4-56" value="列表" style="ellipse;whiteSpace=wrap;html=1;rounded=0;sketch=0;fontSize=16;fontColor=#1D3557;strokeColor=#457B9D;fillColor=#A8DADC;" vertex="1" parent="1">
          <mxGeometry x="90.5" y="2304" width="57" height="51" as="geometry" />
        </mxCell>
        <mxCell id="uByIAMvZp5yXe5QKdyG4-57" value="导出" style="ellipse;whiteSpace=wrap;html=1;rounded=0;sketch=0;fontSize=16;fontColor=#1D3557;strokeColor=#457B9D;fillColor=#A8DADC;" vertex="1" parent="1">
          <mxGeometry x="170.5" y="2302" width="57" height="51" as="geometry" />
        </mxCell>
        <mxCell id="uByIAMvZp5yXe5QKdyG4-58" value="删除" style="ellipse;whiteSpace=wrap;html=1;rounded=0;sketch=0;fontSize=16;fontColor=#1D3557;strokeColor=#457B9D;fillColor=#A8DADC;" vertex="1" parent="1">
          <mxGeometry x="260" y="2302" width="57" height="51" as="geometry" />
        </mxCell>
        <mxCell id="uByIAMvZp5yXe5QKdyG4-59" value="..." style="ellipse;whiteSpace=wrap;html=1;rounded=0;sketch=0;fontSize=16;fontColor=#1D3557;strokeColor=#457B9D;fillColor=#A8DADC;" vertex="1" parent="1">
          <mxGeometry x="338.5" y="2304" width="57" height="51" as="geometry" />
        </mxCell>
        <mxCell id="uByIAMvZp5yXe5QKdyG4-64" value="权限" style="ellipse;whiteSpace=wrap;html=1;rounded=0;sketch=0;fontSize=16;fontColor=#1D3557;strokeColor=#457B9D;fillColor=#A8DADC;" vertex="1" parent="1">
          <mxGeometry x="435" y="2306" width="57" height="51" as="geometry" />
        </mxCell>
        <mxCell id="uByIAMvZp5yXe5QKdyG4-65" value="角色" style="ellipse;whiteSpace=wrap;html=1;rounded=0;sketch=0;fontSize=16;fontColor=#1D3557;strokeColor=#457B9D;fillColor=#A8DADC;" vertex="1" parent="1">
          <mxGeometry x="515" y="2304" width="57" height="51" as="geometry" />
        </mxCell>
        <mxCell id="uByIAMvZp5yXe5QKdyG4-66" value="字典" style="ellipse;whiteSpace=wrap;html=1;rounded=0;sketch=0;fontSize=16;fontColor=#1D3557;strokeColor=#457B9D;fillColor=#A8DADC;" vertex="1" parent="1">
          <mxGeometry x="592" y="2306" width="57" height="51" as="geometry" />
        </mxCell>
        <mxCell id="uByIAMvZp5yXe5QKdyG4-67" value="..." style="ellipse;whiteSpace=wrap;html=1;rounded=0;sketch=0;fontSize=16;fontColor=#1D3557;strokeColor=#457B9D;fillColor=#A8DADC;" vertex="1" parent="1">
          <mxGeometry x="669" y="2306" width="57" height="51" as="geometry" />
        </mxCell>
        <mxCell id="uByIAMvZp5yXe5QKdyG4-72" value="子系统权限示意图" style="text;html=1;strokeColor=none;fillColor=none;align=center;verticalAlign=middle;whiteSpace=wrap;rounded=0;sketch=0;fontSize=16;fontColor=#1D3557;" vertex="1" parent="1">
          <mxGeometry x="335.5" y="2380" width="140" height="30" as="geometry" />
        </mxCell>
      </root>
    </mxGraphModel>
  </diagram>
</mxfile>
